# xmcd CD database file
#
# Track frame offsets:
#	150
#	14867
#	37435
#	53015
#	72899
#	94562
#	118704
#	142006
#	156545
#	175797
#	194048
#	216172
#	231314
#	246539
#	263093
#	279796
#
# Disc length: 4095 seconds
#
# Revision: 0
# Processed by: cddbd v1.5.2PL0 Copyright (c) Steve Scherf et al.
# Submitted via: CDex 1.70beta2
#
DISCID=fc0ffd10
DTITLE=Varlious Artists - Jazz at the Hollywood Bowl Disc 02 of 02
DYEAR=1956
DGENRE=Jazz
TTITLE0=The Oscar Peterson Trio -  9:20 special
TTITLE1=The Oscar Peterson Trio -  How about you
TTITLE2=Louis Armstrong and his orchestra -  When it's sleepy time down south
TTITLE3=Louis Armstrong and his orchestra -  Indiana
TTITLE4=Louis Armstrong and his orchestra - The gypsy
TTITLE5=Louis Armstrong and his orchestra - Ole Miss Blues
TTITLE6=Louis Armstrong and his orchestra - The bucket's got a hole in it
TTITLE7=Louis Armstrong and his orchestra - Perdido
TTITLE8=Louis Armstrong and his orchestra - You made me love you
TTITLE9=Louis Armstrong and his orchestra - Mack the knife 
TTITLE10=Louis Armstrong and his orchestra - Stompin' at the Savoy
TTITLE11=Louis Armstrong and his orchestra - You can depend on me 
TTITLE12=Louis Armstrong and his orchestra - Mop mop
TTITLE13=Ella Fitzgerald with Louis Armstrong and his orchestra -  You won't be satisfied
TTITLE14=Ella Fitzgerald with Louis Armstrong and his orchestra - Undecided
TTITLE15=Finale by entire ensemble - When the saints go marching in
EXTD=YEAR: 1956
EXTT0=
EXTT1=
EXTT2=
EXTT3=
EXTT4=
EXTT5=
EXTT6=
EXTT7=
EXTT8=
EXTT9=
EXTT10=
EXTT11=
EXTT12=
EXTT13=
EXTT14=
EXTT15=
PLAYORDER=
